<svg width="23" height="24" viewBox="0 0 23 24" fill="none" xmlns="http://www.w3.org/2000/svg">
<g clip-path="url(#clip_481_337)">
<mask id="mask_481_334" style="mask-type:luminance" maskUnits="userSpaceOnUse" x="0" y="0" width="23" height="24">
<path d="M14.5912 0H14.5498H12.3579H8.4088C1.4835 0 0 1.5504 0 8.7744V15.2256C0 22.452 1.4858 24 8.4088 24H12.3579H14.5498H14.5912C21.5165 24 23 22.4496 23 15.2256V8.7744C23 1.548 21.5142 0 14.5912 0Z" fill="white"/>
</mask>
<g mask="url(#mask_481_337)">
<rect width="23" height="24" fill="white"/>
</g>
<path fill-rule="evenodd" clip-rule="evenodd" d="M11.6888 21.0791C9.96366 21.0791 9.16195 20.8163 7.76839 19.7651C6.88692 20.9477 4.09561 21.8718 3.97389 20.2907C3.97389 19.1037 3.72204 18.1007 3.43661 17.0057C3.09662 15.6567 2.71045 14.1543 2.71045 11.9775C2.71045 6.77849 6.79878 2.86719 11.6427 2.86719C16.4907 2.86719 20.2894 6.97121 20.2894 12.0257C20.3057 17.002 16.4577 21.0525 11.6888 21.0791ZM11.7602 7.36103C9.4012 7.23401 7.56272 8.93781 7.15556 11.6096C6.81976 13.8215 7.4158 16.5151 7.9237 16.6553C8.16715 16.7166 8.77998 16.1998 9.16195 15.8012C9.79355 16.2565 10.5291 16.53 11.2943 16.594C13.7385 16.7167 15.8271 14.7749 15.9912 12.2272C16.0868 9.67402 14.2048 7.51152 11.7602 7.36541L11.7602 7.36103Z" fill="#161616"/>
</g>
<defs>
<clipPath id="clip_481_337">
<rect width="23" height="24" fill="white"/>
</clipPath>
</defs>
</svg>
